<svg id="Layer_1" height="512" viewBox="0 0 512 512" width="512" xmlns="http://www.w3.org/2000/svg" data-name="Layer 1"><g fill-rule="evenodd"><g fill="#333"><path d="m368.154 73.816a158.611 158.611 0 1 0 46.455 112.154 158.11 158.11 0 0 0 -46.455-112.154z"/><path d="m299.869 351.767 40.4 119.142 18.3-58.895a6.412 6.412 0 0 1 10.185-3.08l50.013 35.387-45.267-133.483a171.18 171.18 0 0 1 -73.631 40.929z"/><path d="m138.5 310.838-45.261 133.482 50.013-35.386a6.411 6.411 0 0 1 10.184 3.08l18.3 58.895 40.4-119.142a171.175 171.175 0 0 1 -73.636-40.929z"/><path d="m224.724 354.585-46.978 138.551a6.416 6.416 0 0 1 -8.135 4.018l-.4-.144a6.4 6.4 0 0 1 -4.091-4.194l-21.316-68.6-58.655 41.5a6.386 6.386 0 0 1 -5.743.835l-.007.019-.426-.145a6.416 6.416 0 0 1 -4.018-8.135l53.485-157.741a171.465 171.465 0 1 1 255.121 0l53.486 157.741a6.416 6.416 0 0 1 -4.018 8.135l-.427.145-.006-.019a6.388 6.388 0 0 1 -5.744-.835l-58.654-41.5-21.315 68.605a6.4 6.4 0 0 1 -4.093 4.193l-.1.035c-.1.039-.2.075-.3.109a6.417 6.417 0 0 1 -8.136-4.018l-46.978-138.555a173.1 173.1 0 0 1 -62.552 0z"/></g><path d="m138.5 310.838-45.261 133.482 50.013-35.386a6.411 6.411 0 0 1 10.184 3.08l18.3 58.895 40.4-119.142a171.175 171.175 0 0 1 -73.636-40.929z" fill="#f3bd67"/><path d="m299.869 351.767 40.4 119.142 18.3-58.895a6.412 6.412 0 0 1 10.185-3.08l50.013 35.387-45.267-133.483a171.18 171.18 0 0 1 -73.631 40.929z" fill="#f3bd67"/><path d="m368.154 73.816a158.611 158.611 0 1 0 46.455 112.154 158.11 158.11 0 0 0 -46.455-112.154z" fill="#f5ca81"/><path d="m268.1 170.155-12.1-29.6-11.894 29.108a6.421 6.421 0 0 1 -5.676 4.486l-31.836 2.351 24.388 20.628v.005a6.4 6.4 0 0 1 2.088 6.4l-7.62 31.067 27.073-16.768a6.4 6.4 0 0 1 6.841-.07l27.186 16.838-7.535-30.737a6.416 6.416 0 0 1 2-6.736l24.391-20.627-31.836-2.353v-.02a6.4 6.4 0 0 1 -5.47-3.972z" fill="#333"/><path d="m261.925 121.231 16.511 40.4 43.553 3.218a6.419 6.419 0 0 1 3.5 11.459l-33.16 28.049 10.4 42.431a6.406 6.406 0 0 1 -9.753 6.854l-36.976-22.898-37.139 23a6.4 6.4 0 0 1 -9.588-6.955l10.4-42.431-33.349-28.209a6.412 6.412 0 0 1 3.691-11.293v-.006l43.553-3.218 16.51-40.4a6.4 6.4 0 0 1 11.851 0z" fill="#333"/><path d="m259.211 314.083a6.4 6.4 0 0 1 .3 12.8c-.511.013-1.1.023-1.757.031-1.9.023-1.056.035-1.756.035a6.428 6.428 0 1 1 0-12.855c1.822 0 .823.024 1.606.014.465 0 .996-.008 1.607-.025z" fill="#333"/><path d="m230.822 311.629a6.426 6.426 0 0 1 -2.511 12.6 140.914 140.914 0 1 1 55.058.059 6.421 6.421 0 0 1 -2.46-12.6 128.123 128.123 0 1 0 -50.087-.058z" fill="#333"/><path d="m268.1 170.155-12.1-29.6-11.894 29.108a6.421 6.421 0 0 1 -5.676 4.486l-31.836 2.351 24.388 20.628v.005a6.4 6.4 0 0 1 2.088 6.4l-7.62 31.067 27.073-16.768a6.4 6.4 0 0 1 6.841-.07l27.186 16.838-7.535-30.737a6.416 6.416 0 0 1 2-6.736l24.391-20.627-31.836-2.353v-.02a6.4 6.4 0 0 1 -5.47-3.972z" fill="#ffb229"/></g></svg>