<svg id="Capa_1" enable-background="new 0 0 512.002 512.002" height="512" viewBox="0 0 512.002 512.002" width="512" xmlns="http://www.w3.org/2000/svg"><path d="m233.281 166.441c-2.295 0-4.624-.528-6.809-1.644-7.378-3.767-10.306-12.802-6.539-20.18 5.685-11.136 8.568-23.176 8.568-35.785 0-43.468-35.363-78.831-78.831-78.831s-78.831 35.363-78.831 78.831c0 11.173 2.285 21.963 6.792 32.069 3.374 7.566-.024 16.435-7.59 19.809-7.564 3.374-16.434-.024-19.809-7.59-6.232-13.977-9.392-28.878-9.392-44.289 0-60.01 48.821-108.831 108.831-108.831s108.832 48.821 108.832 108.831c0 17.152-4.098 34.244-11.85 49.427-2.652 5.193-7.915 8.182-13.372 8.183z" fill="#fff566"/><path d="m197.588 512.002h-148c-22.607 0-41-18.393-41-41v-298c0-22.607 18.393-41 41-41h148c22.607 0 41 18.393 41 41v298c0 22.607-18.392 41-41 41z" fill="#37a8e5"/><path d="m197.588 132.001h-74v380h74c22.607 0 41-18.393 41-41v-298c0-22.607-18.392-41-41-41z" fill="#1a82c7"/><path d="m160.266 302.001c-8.284 0-15 6.716-15 15v45h-43.356v-45c0-8.284-6.716-15-15-15s-15 6.716-15 15v120c0 8.284 6.716 15 15 15s15-6.716 15-15v-45h43.356v45c0 8.284 6.716 15 15 15s15-6.716 15-15v-120c0-8.284-6.715-15-15-15z" fill="#006099"/><path d="m160.266 302.001c-8.284 0-15 6.716-15 15v45h-21.678v30h21.678v45c0 8.284 6.716 15 15 15s15-6.716 15-15v-120c0-8.284-6.715-15-15-15z" fill="#00213b"/><path d="m147.951 217.647c-.092 0-.184-.001-.276-.002-9.595-.173-19.101-1.602-28.254-4.245-7.959-2.299-12.547-10.615-10.249-18.574 2.299-7.959 10.615-12.544 18.574-10.249 6.622 1.913 13.509 2.947 20.47 3.072 8.283.15 14.876 6.985 14.727 15.268-.148 8.191-6.834 14.73-14.992 14.73z" fill="#ffcf2c"/><path d="m148.216 187.649c-6.96-.125-13.848-1.159-20.47-3.072-1.387-.4-2.783-.579-4.158-.58v30.505c7.858 1.933 15.939 2.994 24.087 3.142.092.001.184.002.276.002 8.158 0 14.844-6.539 14.992-14.73.15-8.281-6.444-15.117-14.727-15.267z" fill="#ffa81c"/><path d="m488.414 421.584c-.89 0-1.783-.079-2.674-.24l-61.261-11.095c-3.006-.545-5.773-1.993-7.934-4.153l-131.127-131.128-4.3 4.299c-10.388 10.388-24.2 16.109-38.891 16.109s-28.503-5.721-38.891-16.109l-66.904-66.904c-21.444-21.444-21.444-56.336-.001-77.781l79.965-79.964c10.388-10.388 24.2-16.109 38.891-16.109s28.503 5.721 38.891 16.109l66.904 66.904c10.389 10.388 16.109 24.2 16.109 38.891 0 14.692-5.721 28.503-16.109 38.891l-4.3 4.299 27.264 27.264c1.73 1.729 3.009 3.854 3.729 6.191l5.107 16.578 16.578 5.107c4.744 1.461 8.458 5.175 9.919 9.918l5.107 16.578 16.578 5.107c4.744 1.461 8.458 5.175 9.919 9.919l5.547 18.007 27.446 13.632c4.244 2.107 7.242 6.095 8.087 10.757l11.108 61.247c.878 4.84-.673 9.803-4.15 13.282-2.838 2.838-6.665 4.394-10.607 4.394z" fill="#ffcf2c"/><path d="m503.172 403.907-11.108-61.247c-.845-4.662-3.843-8.65-8.087-10.757l-27.446-13.632-5.547-18.007c-1.461-4.744-5.175-8.458-9.919-9.919l-16.578-5.107-5.107-16.578c-1.461-4.744-5.175-8.457-9.919-9.918l-16.578-5.107-5.107-16.578c-.72-2.336-1.999-4.462-3.729-6.191l-27.264-27.264 4.3-4.299c10.389-10.388 16.109-24.2 16.109-38.891s-5.721-28.502-16.109-38.891l-66.904-66.904c-10.388-10.388-24.199-16.109-38.891-16.109-14.691 0-28.502 5.721-38.891 16.109l-39.974 39.974 322.599 322.599c3.477-3.479 5.028-8.442 4.15-13.283z" fill="#ffa81c"/><path d="m233.419 184.101c-8.558 0-16.922-3.466-22.988-9.511-6.045-6.045-9.512-14.43-9.512-22.989 0-8.558 3.467-16.921 9.512-22.966 6.045-6.067 14.43-9.534 22.988-9.534 8.559 0 16.943 3.467 22.988 9.534 6.045 6.045 9.512 14.408 9.512 22.966 0 8.559-3.467 16.944-9.512 22.989-6.066 6.045-14.429 9.511-22.988 9.511z" fill="#006099"/><path d="m256.415 174.582c6.04-6.044 9.504-14.426 9.504-22.981 0-8.558-3.467-16.921-9.512-22.966-6.045-6.067-14.429-9.534-22.988-9.534-8.549 0-16.925 3.46-22.969 9.516z" fill="#00213b"/><path d="m149.671 0v30c43.468 0 78.831 35.363 78.831 78.831 0 12.609-2.883 24.649-8.568 35.785-3.767 7.379-.839 16.414 6.539 20.18 2.185 1.116 4.513 1.644 6.809 1.644 5.457-.001 10.72-2.989 13.372-8.183 7.752-15.183 11.85-32.275 11.85-49.427-.002-60.009-48.823-108.83-108.833-108.83z" fill="#ffe645"/></svg>