<svg id="Capa_1" enable-background="new 0 0 542.119 542.119" height="512" viewBox="0 0 542.119 542.119" width="512" xmlns="http://www.w3.org/2000/svg"><g><g><path d="m24.642 197.134c-14.785 0-24.642-9.857-24.642-24.642v-98.567c0-41.891 32.034-73.925 73.925-73.925h98.567c14.785 0 24.642 9.857 24.642 24.642s-9.857 24.642-24.642 24.642h-98.567c-14.785 0-24.642 9.857-24.642 24.642v98.567c.001 14.784-9.856 24.641-24.641 24.641z"/></g><g><path d="m517.477 197.134c-14.785 0-24.642-9.857-24.642-24.642v-98.567c0-14.785-9.857-24.642-24.642-24.642h-98.567c-14.785 0-24.642-9.857-24.642-24.642s9.857-24.641 24.642-24.641h98.567c41.891 0 73.925 32.034 73.925 73.925v98.567c.001 14.785-9.856 24.642-24.641 24.642z"/></g><g><path d="m172.492 542.119h-98.567c-41.891 0-73.925-32.034-73.925-73.925v-98.567c0-14.785 9.857-24.642 24.642-24.642s24.642 9.857 24.642 24.642v98.567c0 14.785 9.857 24.642 24.642 24.642h98.567c14.785 0 24.642 9.857 24.642 24.642-.001 14.784-9.858 24.641-24.643 24.641z"/></g><g><path d="m468.194 542.119h-98.567c-14.785 0-24.642-9.857-24.642-24.642s9.857-24.642 24.642-24.642h98.567c14.785 0 24.642-9.857 24.642-24.642v-98.567c0-14.785 9.857-24.642 24.642-24.642s24.642 9.857 24.642 24.642v98.567c-.001 41.892-32.035 73.926-73.926 73.926z"/></g><g><path d="m221.776 246.418h-98.567c-14.785 0-24.642-9.857-24.642-24.642v-98.567c0-14.785 9.857-24.642 24.642-24.642h98.567c14.785 0 24.642 9.857 24.642 24.642v98.567c0 14.785-9.857 24.642-24.642 24.642zm-73.925-49.284h49.284v-49.284h-49.284z"/></g><g><path d="m221.776 443.552h-98.567c-14.785 0-24.642-9.857-24.642-24.642v-98.567c0-14.785 9.857-24.642 24.642-24.642h98.567c14.785 0 24.642 9.857 24.642 24.642v98.567c0 14.785-9.857 24.642-24.642 24.642zm-73.925-49.284h49.284v-49.284h-49.284z"/></g><g><path d="m418.91 246.418h-98.567c-14.785 0-24.642-9.857-24.642-24.642v-98.567c0-14.785 9.857-24.642 24.642-24.642h98.567c14.785 0 24.642 9.857 24.642 24.642v98.567c0 14.785-9.857 24.642-24.642 24.642zm-73.925-49.284h49.284v-49.284h-49.284z"/></g><g><path d="m320.343 369.626c-14.785 0-24.642-9.857-24.642-24.642v-24.642c0-14.785 9.857-24.642 24.642-24.642s24.642 9.857 24.642 24.642v24.642c0 14.786-9.857 24.642-24.642 24.642z"/></g><g><path d="m418.91 344.985h-24.642c-14.785 0-24.642-9.857-24.642-24.642s9.857-24.642 24.642-24.642h24.642c14.785 0 24.642 9.857 24.642 24.642s-9.857 24.642-24.642 24.642z"/></g><g><path d="m418.91 443.552h-73.925c-14.785 0-24.642-9.857-24.642-24.642s9.857-24.642 24.642-24.642h73.925c14.785 0 24.642 9.857 24.642 24.642s-9.857 24.642-24.642 24.642z"/></g></g></svg>