<svg id="Capa_1" enable-background="new 0 0 511.933 511.933" height="512" viewBox="0 0 511.933 511.933" width="512" xmlns="http://www.w3.org/2000/svg"><g><path d="m477.72 398.728-62.52-89.288c22.97-32.073 36.507-71.339 36.507-113.71 0-107.926-87.809-195.73-195.74-195.73-44.114 0-85.754 14.323-120.419 41.421-3.263 2.552-3.841 7.265-1.29 10.528 2.551 3.264 7.265 3.84 10.528 1.29 32.001-25.016 70.447-38.239 111.181-38.239 99.661 0 180.74 81.075 180.74 180.729 0 99.66-81.08 180.74-180.74 180.74s-180.74-81.08-180.74-180.74c0-44.016 16.012-86.427 45.087-119.421 2.739-3.108 2.439-7.848-.668-10.586-3.106-2.736-7.846-2.438-10.585.668-59.273 67.264-66.034 168.056-12.326 243.049l-62.52 89.288c-10.476 14.96.312 35.665 18.828 35.401l62.044-1.11c3.216-.039 6.159 1.971 7.219 5.061l20.178 58.664c5.966 17.388 29.168 20.651 39.708 5.599l59.81-85.431c2.375-3.394 1.551-8.07-1.843-10.445-3.392-2.378-8.069-1.553-10.445 1.842l-59.81 85.431c-3.518 5.021-11.236 3.955-13.234-1.868l-20.178-58.665c-3.133-9.13-11.641-15.188-21.255-15.188-.32 0 2.975-.057-62.463 1.114-5.999.165-9.846-6.696-6.272-11.8l59.877-85.513c35.155 41.642 87.334 68.458 145.701 69.602l77.665 110.922c10.558 15.079 33.755 11.752 39.706-5.593l20.182-58.675c1.058-3.085 3.95-5.154 7.222-5.056l62.04 1.11c18.557.243 29.285-20.465 18.825-35.401zm-18.559 20.403-62.036-1.11c-10.124-.14-18.59 6.172-21.681 15.18l-20.182 58.676c-1.992 5.807-9.711 6.889-13.232 1.862l-71.965-102.78c54.224-3.879 102.4-29.941 135.492-69.14l59.876 85.513c3.498 4.995-.086 11.893-6.272 11.799z"/><path d="m255.967 346.293c83.019 0 150.559-67.54 150.559-150.559s-67.541-150.558-150.559-150.558-150.559 67.54-150.559 150.559 67.54 150.558 150.559 150.558zm0-286.117c74.747 0 135.559 60.812 135.559 135.559s-60.812 135.559-135.559 135.559-135.559-60.812-135.559-135.559 60.812-135.559 135.559-135.559z"/><path d="m160.908 191.537 32.942 23.941c2.637 1.915 3.732 5.283 2.724 8.384l-12.58 38.73c-6.742 20.746 16.996 37.952 34.622 25.154l32.938-23.939c2.639-1.916 6.185-1.918 8.824-.002l32.942 23.942c17.621 12.798 41.361-4.41 34.62-25.155l-12.581-38.732c-1.008-3.099.087-6.467 2.727-8.383l32.938-23.939c17.659-12.822 8.556-40.698-13.227-40.698h-8.95c-4.142 0-7.5 3.357-7.5 7.5s3.358 7.5 7.5 7.5h8.95c5.063 0 6.746 3.967 7.14 5.183.395 1.214 1.364 5.408-2.729 8.38l-32.938 23.939c-7.915 5.747-11.201 15.857-8.177 25.155l12.581 38.73c1.563 4.81-1.688 7.634-2.722 8.385-1.035.752-4.726 2.971-8.816 0l-32.942-23.941c-7.911-5.746-18.542-5.745-26.456.001l-32.938 23.939c-4.094 2.972-7.785.751-8.819.001-1.033-.751-4.284-3.575-2.721-8.385l12.579-38.729c3.025-9.3-.261-19.41-8.173-25.156l-32.942-23.941c-4.091-2.971-3.122-7.165-2.727-8.379.395-1.216 2.077-5.183 7.14-5.183h40.72c9.771 0 18.367-6.249 21.393-15.553l12.58-38.72c1.563-4.809 5.858-5.183 7.137-5.183s5.575.374 7.137 5.183l12.581 38.724c2.462 7.563 8.806 13.315 16.556 15.015 4.044.886 8.045-1.673 8.932-5.721.887-4.046-1.674-8.045-5.72-8.932-2.574-.564-4.683-2.482-5.503-5.001l-12.58-38.72c-6.729-20.714-36.066-20.747-42.806 0l-12.58 38.718c-1.009 3.104-3.874 5.189-7.127 5.189h-40.72c-21.821.002-30.855 27.9-13.229 40.699z"/></g></svg>