<?xml version="1.0" encoding="iso-8859-1"?>
<!-- Generator: Adobe Illustrator 19.0.0, SVG Export Plug-In . SVG Version: 6.00 Build 0)  -->
<svg version="1.1" id="Capa_1" xmlns="http://www.w3.org/2000/svg" xmlns:xlink="http://www.w3.org/1999/xlink" x="0px" y="0px"
	 viewBox="0 0 512 512" style="enable-background:new 0 0 512 512;" xml:space="preserve">
<path style="fill:#86D6F2;" d="M466.786,512c-11.524,0-23.049-4.386-31.822-13.159L234.258,298.135l63.647-63.647l200.704,200.704
	c17.548,17.547,17.548,46.099,0,63.647l0,0C489.835,507.614,478.31,512,466.786,512z"/>
<path style="fill:#ACE3FC;" d="M209.802,301.966l-151.27-151.27c-17.064-17.064-27.224-40.218-29.383-66.962
	c-1.895-23.462,2.324-49.13,12.201-74.227L45.09,0h18.325l224.176,224.176L209.802,301.966z"/>
<path style="fill:#CCEFFF;" d="M490.181,85.223l-81.327,81.326l-21.216-21.215l81.327-81.327L447.75,42.792l-81.326,81.326
	l-21.215-21.215l81.327-81.326L405.32,0.361L299.242,106.438c-12.977,12.977-20.726,30.208-21.821,48.52
	c-0.645,10.79-5.451,21.183-13.533,29.266L13.39,434.721c-17.547,17.547-17.547,46.099,0,63.646
	c8.773,8.774,20.298,13.16,31.822,13.16c11.525,0,23.049-4.386,31.823-13.16l250.497-250.497
	c8.083-8.083,18.477-12.889,29.266-13.534c18.312-1.093,35.543-8.843,48.52-21.82l106.077-106.077L490.181,85.223z"/>
<path style="fill:#ACE3FC;" d="M408.856,166.549l-21.216-21.215l81.326-81.327L458.358,53.4L13.39,498.367
	c8.773,8.774,20.298,13.16,31.822,13.16c11.525,0,23.049-4.386,31.823-13.16l250.497-250.497
	c8.083-8.083,18.477-12.889,29.266-13.534c18.312-1.093,35.543-8.843,48.52-21.82l106.077-106.077l-21.215-21.214L408.856,166.549z"
	/>
<g>
</g>
<g>
</g>
<g>
</g>
<g>
</g>
<g>
</g>
<g>
</g>
<g>
</g>
<g>
</g>
<g>
</g>
<g>
</g>
<g>
</g>
<g>
</g>
<g>
</g>
<g>
</g>
<g>
</g>
</svg>
