<svg height="512" viewBox="0 0 48 48" width="512" xmlns="http://www.w3.org/2000/svg"><g id="share"><path d="m35.274 15.838h-4.094c-.828 0-1.5.671-1.5 1.5s.672 1.5 1.5 1.5h4.095c.827 0 1.5.673 1.5 1.5v19.616c0 .827-.673 1.5-1.5 1.5h-22.549c-.827 0-1.5-.673-1.5-1.5v-19.616c0-.827.673-1.5 1.5-1.5h4.095c.829 0 1.5-.671 1.5-1.5s-.671-1.5-1.5-1.5h-4.095c-2.481 0-4.5 2.019-4.5 4.5v19.616c0 2.481 2.019 4.5 4.5 4.5h22.549c2.481 0 4.5-2.019 4.5-4.5v-19.616c-.001-2.482-2.019-4.5-4.501-4.5zm-16.867-3.028 4.143-4.143v19.748c0 .828.671 1.5 1.5 1.5s1.5-.672 1.5-1.5v-19.748l4.143 4.143c.293.293.677.439 1.061.439s.768-.146 1.061-.439c.586-.585.586-1.536 0-2.121l-6.703-6.704c-.587-.586-1.536-.586-2.122 0l-6.704 6.704c-.586.585-.586 1.536 0 2.121.586.586 1.535.586 2.121 0z"/></g></svg>