<svg id="Capa_1" enable-background="new 0 0 607.812 607.812" height="512" viewBox="0 0 607.812 607.812" width="512" xmlns="http://www.w3.org/2000/svg"><g><g id="b2c05677-4f5c-4fcf-bef9-314ae5ab1883"><g id="ad768007-1e8b-4226-9a57-5ffcdf290a8f"><path d="m244.122 269.479c7.325 0 13.272 4.998 13.272 11.147 0 6.556 5.315 11.871 11.871 11.871s11.871-5.315 11.871-11.871c0-15.326-10.542-28.361-25.143-33.038v-6.779c0-6.556-5.315-11.871-11.871-11.871s-11.871 5.315-11.871 11.871v6.779c-14.614 4.677-25.155 17.712-25.155 33.038 0 18.994 17.902 31.269 34.534 34.569h.119c15.646 2.932 15.646 8.096 15.646 11.871 0 6.149-5.936 11.147-13.272 11.147s-13.284-4.998-13.284-11.147c0-6.556-5.315-11.871-11.871-11.871s-11.871 5.315-11.871 11.871c0 15.326 10.542 28.361 25.155 33.038v6.779c0 6.556 5.315 11.871 11.871 11.871s11.871-5.315 11.871-11.871v-6.707c14.602-4.677 25.143-17.712 25.143-33.038 0-13.058-6.054-29.75-34.949-35.198-8.179-1.638-15.35-6.897-15.35-11.266 0-6.15 5.959-11.195 13.284-11.195z"/><path d="m261.039 542.318h-33.833c-6.556 0-11.871 5.315-11.871 11.871s5.315 11.871 11.871 11.871h33.833c6.556 0 11.871-5.315 11.871-11.871s-5.315-11.871-11.871-11.871z"/><path d="m553.204 168.775c0-66.408-53.516-120.506-119.58-121.289 0-26.226-21.26-47.486-47.485-47.486h-284.046c-26.225 0-47.485 21.26-47.485 47.485v512.841c0 26.225 21.26 47.485 47.485 47.485h284.045c26.225 0 47.485-21.26 47.485-47.485v-270.286c66.065-.771 119.581-54.869 119.581-121.265zm-451.111-145.032h284.045c13.113 0 23.743 10.63 23.743 23.743v2.445c-8.285 1.523-16.404 3.845-24.241 6.933h-307.289v-9.378c0-13.113 10.63-23.743 23.742-23.743zm212.556 172.134c3.144 14.815 9.039 28.908 17.38 41.55l-.071 177.274h-175.767v-232.393l14.091 11.575c4.381 3.601 10.696 3.601 15.077 0l25.642-21.06 25.785 21.072c4.372 3.575 10.657 3.575 15.029 0l25.785-21.072 25.642 21.06c3.198 2.6 7.516 3.355 11.407 1.994zm-2.872-27.304-.997.819-25.618-21.036c-4.376-3.588-10.677-3.588-15.053 0l-25.809 21.083-25.808-21.083c-4.374-3.581-10.667-3.581-15.041 0l-25.63 21.036-25.606-21.083c-2.125-1.744-4.789-2.696-7.538-2.695h-.356c-6.556 0-11.871 5.315-11.871 11.871v269.099c0 6.556 5.315 11.871 11.871 11.871h199.509c6.556 0 11.871-5.315 11.871-11.871l.059-163.171c15.195 12.168 33.489 20.347 54.121 24.206v212.96h-331.53v-419.973h270.001c-2.232 2.125-4.369 4.345-6.434 6.66-19.386 21.796-30.082 50.643-30.141 81.307zm74.362 415.496h-284.046c-13.113 0-23.743-10.63-23.743-23.743v-36.006h331.53v36.006c.001 13.113-10.629 23.743-23.741 23.743zm46.298-317.76c-66.598-2.766-96.929-52.471-96.929-97.547s30.331-94.781 96.929-97.535c53.516.131 97.024 43.841 97.024 97.547s-43.508 97.405-97.024 97.535z"/><path d="m487.674 127.7c-4.875-4.382-12.379-3.983-16.762.89l-50.346 55.997-28.325-23.529c-5.117-4.1-12.588-3.275-16.687 1.841-3.997 4.988-3.327 12.245 1.516 16.417l37.098 30.865c4.903 4.079 12.153 3.555 16.418-1.187l57.98-64.497c4.394-4.866 4.011-12.373-.856-16.767-.013-.009-.024-.02-.036-.03z"/></g></g></g></svg>