<svg id="Layer_1" enable-background="new 0 0 100 100" height="100" viewBox="0 0 100 100" width="100" xmlns="http://www.w3.org/2000/svg"><path d="m94.142 41.142c2.748 2.393-1.616-1.407 0 0z"/><path d="m94.142 41.142c-1.783-1.553-4.111-3.174-4.006-5.78.113-2.78 1.141-5.461 1.5-8.212.331-2.536.128-5.257-1.723-7.2-1.644-1.727-4.066-2.349-6.35-2.674-2.557-.364-5.36-.201-7.807-1.105-2.277-.843-3.126-4.005-3.989-6.021-.911-2.128-1.888-4.359-3.562-6.011-1.919-1.895-4.525-2.406-7.09-1.66-2.927.852-5.382 2.778-8.06 4.16-.986.51-2.145 1.091-3.289.996-1.335-.111-2.618-.863-3.758-1.508-2.582-1.46-5.133-3.355-8.115-3.884-2.581-.458-4.97.521-6.644 2.494-1.54 1.815-2.439 4.081-3.364 6.246-.97 2.274-1.822 4.795-4.454 5.433-4.487 1.089-10.767-.09-13.879 4.185-1.582 2.173-1.468 4.984-1.033 7.508.452 2.616 1.593 5.406 1.335 8.087-.225 2.338-3.056 4.122-4.663 5.536-1.834 1.613-3.762 3.383-4.686 5.702-2.131 5.348 2.902 9.2 6.395 12.323.908.813 1.885 1.668 2.524 2.719.62 1.021.487 2.283.321 3.412-.405 2.76-1.34 5.43-1.493 8.229-.139 2.541.554 5.068 2.664 6.656 1.902 1.432 4.377 1.834 6.685 2.088 1.291.141 2.588.225 3.877.383 1.193.146 2.629.287 3.633 1.018.909.662 1.45 1.846 1.92 2.83.595 1.246 1.1 2.531 1.663 3.789.933 2.088 2.047 4.275 3.922 5.674 2.277 1.699 5.078 1.535 7.598.488 2.783-1.156 5.152-3.123 7.943-4.254 2.624-1.061 4.899.5 7.126 1.822 2.482 1.475 5.18 3.26 8.178 3.26 2.529 0 4.572-1.48 5.967-3.492 1.415-2.041 2.241-4.41 3.256-6.656.494-1.094 1.02-2.295 1.871-3.164.831-.848 2.164-1.055 3.285-1.221 4.466-.668 10.963-.102 13.244-5.016 1.118-2.406.682-5.213.158-7.711-.282-1.352-.625-2.689-.87-4.047-.206-1.145-.485-2.561-.006-3.676.888-2.065 3.276-3.574 4.899-5.027 1.678-1.502 3.387-3.172 4.235-5.303 1.917-4.808-2.065-8.549-5.358-11.416zm.81 9.265c-.469 1.906-2.671 3.437-4.072 4.652.475-.412.875-.762-.021.018-2.006 1.748-4.259 3.605-5.219 6.174-1.069 2.857-.264 6.045.383 8.902.369 1.625 1.752 5.457-.024 6.688-.881.611-2.079.775-3.114.922-1.428.201-2.869.289-4.303.441-2.587.277-5.353.752-7.325 2.592-1.962 1.83-2.969 4.465-3.998 6.879-.654 1.531-1.817 5.387-4.023 5.184-1.222-.113-2.4-.813-3.446-1.402-1.396-.787-2.744-1.654-4.159-2.404-2.634-1.396-5.381-2.18-8.313-1.268-2.911.906-5.354 2.811-8.042 4.186-.86.439-2.172 1.168-3.178.834-1.005-.326-1.633-1.547-2.089-2.41-1.282-2.426-2.071-5.092-3.522-7.432-1.441-2.326-3.478-3.705-6.136-4.305-2.684-.605-5.461-.527-8.156-1.049-.863-.168-2.04-.396-2.596-1.16-.632-.869-.373-2.297-.223-3.27.455-2.963 1.51-5.85 1.505-8.875-.005-2.937-1.426-5.189-3.471-7.186-1.939-1.895-4.527-3.488-5.962-5.832-1.379-2.255 1.388-4.331 2.901-5.668 2.04-1.804 4.365-3.561 5.646-6.027 1.398-2.694.86-5.819.242-8.651-.3-1.371-.647-2.736-.86-4.125-.15-.975-.41-2.402.223-3.271.556-.764 1.733-.992 2.597-1.16 1.398-.271 2.826-.366 4.241-.498 2.601-.241 5.442-.526 7.62-2.11 2.157-1.57 3.29-4.167 4.309-6.544.523-1.221 1.021-2.458 1.643-3.633.456-.863 1.084-2.085 2.089-2.411 1.015-.325 2.309.391 3.177.835 1.422.728 2.765 1.599 4.152 2.389 2.533 1.443 5.3 2.669 8.271 2.056 2.967-.613 5.499-2.471 8.091-3.933 1.046-.59 2.225-1.289 3.447-1.402 1.099-.102 1.797.835 2.318 1.675 2.785 4.479 3.39 10.564 9.183 12.286 1.997.593 4.1.721 6.163.913 1.595.148 4.198.127 5.397 1.396 1.102 1.166.311 3.748.026 5.083-.505 2.373-1.195 4.755-1.19 7.2.008 4.796 3.845 7.479 7.063 10.409 1.058.962 3.166 2.638 2.755 4.312z"/><path d="m65.208 36.902c-6.405 6.981-12.81 13.961-19.215 20.942-.236.258-.246.43-.549.25-.901-.531-1.802-1.063-2.703-1.593-2.545-1.499-5.089-2.999-7.634-4.499-.908-.535-1.776-1.1-2.896-.748-2.059.645-2.324 3.477-.494 4.555 1.929 1.137 3.857 2.273 5.786 3.41 2.318 1.365 4.637 2.732 6.955 4.098 1.478.871 2.781.564 3.904-.659 3.468-3.78 6.936-7.56 10.403-11.341 2.777-3.026 5.554-6.053 8.33-9.08.585-.637 1.169-1.274 1.754-1.911 2.204-2.402-1.436-5.83-3.641-3.424z"/></svg>