<svg id="svg8" height="512" viewBox="0 0 48 48" width="512" xmlns="http://www.w3.org/2000/svg" xmlns:svg="http://www.w3.org/2000/svg"><g id="g4558" transform="translate(0 -.006)"><path id="path4533" d="m12 16.482422a1 1 0 0 0 -1 1v2.171875a1 1 0 0 0 1 1 1 1 0 0 0 1-1v-2.171875a1 1 0 0 0 -1-1z" font-variant-ligatures="normal" font-variant-position="normal" font-variant-caps="normal" font-variant-numeric="normal" font-variant-alternates="normal" font-variant-east-asian="normal" font-feature-settings="normal" font-variation-settings="normal" text-indent="0" text-align="start" text-decoration-line="none" text-decoration-style="solid" text-decoration-color="rgb(0,0,0)" text-transform="none" text-orientation="mixed" white-space="normal" shape-padding="0" shape-margin="0" inline-size="0" isolation="auto" mix-blend-mode="normal" solid-color="rgb(0,0,0)" solid-opacity="1" vector-effect="none"/><path id="path4543" d="m12 21.914062a1 1 0 0 0 -1 1v2.171876a1 1 0 0 0 1 1 1 1 0 0 0 1-1v-2.171876a1 1 0 0 0 -1-1z" font-variant-ligatures="normal" font-variant-position="normal" font-variant-caps="normal" font-variant-numeric="normal" font-variant-alternates="normal" font-variant-east-asian="normal" font-feature-settings="normal" font-variation-settings="normal" text-indent="0" text-align="start" text-decoration-line="none" text-decoration-style="solid" text-decoration-color="rgb(0,0,0)" text-transform="none" text-orientation="mixed" white-space="normal" shape-padding="0" shape-margin="0" inline-size="0" isolation="auto" mix-blend-mode="normal" solid-color="rgb(0,0,0)" solid-opacity="1" vector-effect="none"/><path id="path4545" d="m12 27.345703a1 1 0 0 0 -1 1v2.171875a1 1 0 0 0 1 1 1 1 0 0 0 1-1v-2.171875a1 1 0 0 0 -1-1z" font-variant-ligatures="normal" font-variant-position="normal" font-variant-caps="normal" font-variant-numeric="normal" font-variant-alternates="normal" font-variant-east-asian="normal" font-feature-settings="normal" font-variation-settings="normal" text-indent="0" text-align="start" text-decoration-line="none" text-decoration-style="solid" text-decoration-color="rgb(0,0,0)" text-transform="none" text-orientation="mixed" white-space="normal" shape-padding="0" shape-margin="0" inline-size="0" isolation="auto" mix-blend-mode="normal" solid-color="rgb(0,0,0)" solid-opacity="1" vector-effect="none"/><path id="path4501" d="m8.86719 5.0078125c-1.16475.097523-2.22589.8738043-2.61328 2.0449219l-1.33203 4.0214846c-1.62406.135816-2.92188 1.499623-2.92188 3.15625v3.978515c.00032.433896.28038.818092.69336.951172 1.24751.402632 2.30621 1.969917 2.30664 3.888672.00017 1.919372-1.05873 3.487862-2.30664 3.890625-.41298.13308-.69304.517276-.69336.951172v5.976563c0 1.745331 1.43631 3.18164 3.18164 3.18164h15.78711l16.97852 5.796875c1.56737.535243 3.28229-.340826 3.79882-1.902344l1.29688-3.917968c1.64051-.118685 2.95703-1.489623 2.95703-3.158203v-5.978516c-.00032-.433896-.28038-.818092-.69336-.951172-1.24751-.402632-2.30621-1.969916-2.30664-3.888672-.00017-1.919372 1.05873-3.487862 2.30664-3.890625.41298-.13308.69304-.517276.69336-.951172v-3.976562c0-1.745333-1.43631-3.181641-3.18164-3.181641h-15.7832l-16.97657-5.8984374c-.3930227-.137635-.8214057-.1202355-1.1914-.1425781zm.14648 1.984375c.12968-.00884.26497.00822.40039.052734 3.84125 1.3338632 7.6823 2.6690833 11.52344 4.0039065h-13.90039l1.11523-3.3691409c.1344-.4062789.47229-.6609725.86133-.6874996zm-3.83203 6.0566405h5.81836v.951172c0 .552285.447715 1 1 1s1-.447715 1-1v-.951172h29.81836c.67212 0 1.18164.509517 1.18164 1.181641v3.404297c-1.84688.973017-3.00021 3.069972-3 5.414062.00052 2.343347 1.15364 4.439476 3 5.41211v5.40625c0 .672122-.50952 1.18164-1.18164 1.18164h-29.82031c.00497-.345135.00195-.700212.00195-1.048828 0-.552285-.44772-1-1-1s-1 .447715-1 1c-.002.347065.00085.705863.002 1.048828h-5.82031c-.67232-.000002-1.18169-.509519-1.18169-1.18164v-5.404297c1.84688-.973018 3.00021-3.069972 3-5.414063-.00052-2.343347-1.15364-4.439475-3-5.412109v-3.40625c0-.672124.50952-1.181641 1.18164-1.181641zm21.97656 24h13.76953l-1.08007 3.265625c-.17941.542364-.72419.819565-1.25391.638672z" font-variant-ligatures="normal" font-variant-position="normal" font-variant-caps="normal" font-variant-numeric="normal" font-variant-alternates="normal" font-variant-east-asian="normal" font-feature-settings="normal" font-variation-settings="normal" text-indent="0" text-align="start" text-decoration-line="none" text-decoration-style="solid" text-decoration-color="rgb(0,0,0)" text-transform="none" text-orientation="mixed" white-space="normal" shape-padding="0" shape-margin="0" inline-size="0" isolation="auto" mix-blend-mode="normal" solid-color="rgb(0,0,0)" solid-opacity="1" vector-effect="none"/><path id="circle4507" d="m32.76218 25.565139c1.78013 0 3.24414 1.464012 3.24414 3.24414s-1.46401 3.246094-3.24414 3.246094-3.24609-1.465966-3.24609-3.246094 1.46596-3.24414 3.24609-3.24414zm0 2c-.69925 0-1.24609.544892-1.24609 1.24414s.54684 1.246094 1.24609 1.246094 1.24414-.546846 1.24414-1.246094-.54489-1.24414-1.24414-1.24414z" font-variant-ligatures="normal" font-variant-position="normal" font-variant-caps="normal" font-variant-numeric="normal" font-variant-alternates="normal" font-variant-east-asian="normal" font-feature-settings="normal" font-variation-settings="normal" text-indent="0" text-align="start" text-decoration-line="none" text-decoration-style="solid" text-decoration-color="rgb(0,0,0)" text-transform="none" text-orientation="mixed" white-space="normal" shape-padding="0" shape-margin="0" inline-size="0" isolation="auto" mix-blend-mode="normal" solid-color="rgb(0,0,0)" solid-opacity="1" vector-effect="none"/><path id="circle4509" d="m23.23937 16.042818c1.78013 0 3.24414 1.464013 3.24414 3.24414 0 1.780129-1.46401 3.244141-3.24414 3.244141s-3.24609-1.464012-3.24609-3.244141c0-1.780127 1.46597-3.24414 3.24609-3.24414zm0 2c-.69924 0-1.24609.544893-1.24609 1.24414 0 .699248.54685 1.244141 1.24609 1.244141.69925 0 1.24414-.544893 1.24414-1.244141 0-.699247-.54489-1.24414-1.24414-1.24414z" font-variant-ligatures="normal" font-variant-position="normal" font-variant-caps="normal" font-variant-numeric="normal" font-variant-alternates="normal" font-variant-east-asian="normal" font-feature-settings="normal" font-variation-settings="normal" text-indent="0" text-align="start" text-decoration-line="none" text-decoration-style="solid" text-decoration-color="rgb(0,0,0)" text-transform="none" text-orientation="mixed" white-space="normal" shape-padding="0" shape-margin="0" inline-size="0" isolation="auto" mix-blend-mode="normal" solid-color="rgb(0,0,0)" solid-opacity="1" vector-effect="none"/><path id="path1852" d="m32.054688 18.580078-9.523438 9.523438c-.390423.390507-.390423 1.023555 0 1.414062.390507.390423 1.023555.390423 1.414062 0l9.523438-9.523437c.390424-.390507.390424-1.023556 0-1.414063-.408466-.363184-1.028924-.401252-1.414062 0z" font-variant-ligatures="normal" font-variant-position="normal" font-variant-caps="normal" font-variant-numeric="normal" font-variant-alternates="normal" font-variant-east-asian="normal" font-feature-settings="normal" font-variation-settings="normal" text-indent="0" text-align="start" text-decoration-line="none" text-decoration-style="solid" text-decoration-color="rgb(0,0,0)" text-transform="none" text-orientation="mixed" white-space="normal" shape-padding="0" shape-margin="0" inline-size="0" isolation="auto" mix-blend-mode="normal" solid-color="rgb(0,0,0)" solid-opacity="1" vector-effect="none"/></g></svg>