<svg height="512" viewBox="0 0 32 32" width="512" xmlns="http://www.w3.org/2000/svg"><g id="clockwise"><g><g><path d="m16 2c-7.7197266 0-14 6.2802734-14 14s6.2802734 14 14 14c7.7202148 0 14-6.2802734 14-14s-6.2797852-14-14-14z" fill="#ffca28"/></g><path d="m17.925293 28.8964844.1416016 1.9951172-.9975586.0708008c-.3530274.0249023-.7094727.0375976-1.069336.0375976-8.2709961 0-15-6.7290039-15-15s6.7290039-15 15-15c4.7495117 0 9.1967773 2.293457 12 6.0180664v-3.0180664h2v7h-7v-2h3.9453125c-2.3710937-3.6875-6.5063477-6-10.9453125-6-7.168457 0-13 5.831543-13 13s5.831543 13 13 13c.3120117 0 .621582-.0107422.9277344-.0327148zm5.1010742-1.9580078c-.5195313.3344727-1.0668945.6342773-1.6259766.8901367l-.9091797.4160156.8320313 1.8183594.9091797-.4160156c.6455078-.2954102 1.2773438-.640625 1.8769531-1.0268555l.8408203-.5415039-1.0830078-1.6816406zm5.9736328-11.9384766v1c0 .6201172-.0439453 1.2431641-.1308594 1.8515625l-.140625.9902344 1.9799805.2817383.1411133-.9897461c.0996094-.7016602.1503906-1.4199219.1503906-2.1337891v-1zm-1.5878906 7.230957c-.296875.5419922-.6352539 1.0668945-1.0048828 1.5600586l-.6000977.7998047 1.5996094 1.2001953.6000977-.7998047c.4267578-.5688477.8168945-1.1743164 1.1591797-1.800293l.4804688-.8769531-1.7543945-.9604492zm-12.4121094-16.230957v8.2783203c-.2998047.1743164-.5473633.421875-.7216797.7216797h-6.2783203v2h6.2783203c.3466797.5947266.984375 1 1.7216797 1 1.1030273 0 2-.8969727 2-2 0-.7373047-.4052734-1.375-1-1.7216797v-8.2783203z" fill="#212121"/></g></g></svg>